<svg width="640" height="512" xmlns="http://www.w3.org/2000/svg" role="img" class="svg-inline--fa fa-discord fa-w-20" data-icon="discord" data-prefix="fab" focusable="false" aria-hidden="true">

 <g>
  <title>Layer 1</title>
  <path id="svg_1" d="m524.531,69.836a1.5,1.5 0 0 0 -0.764,-0.7a485.065,485.065 0 0 0 -119.686,-37.106a1.816,1.816 0 0 0 -1.923,0.91a337.461,337.461 0 0 0 -14.9,30.6a447.848,447.848 0 0 0 -134.426,0a309.541,309.541 0 0 0 -15.135,-30.6a1.89,1.89 0 0 0 -1.924,-0.91a483.689,483.689 0 0 0 -119.688,37.107a1.712,1.712 0 0 0 -0.788,0.676c-76.229,113.838 -97.111,224.877 -86.867,334.541a2.016,2.016 0 0 0 0.765,1.375a487.666,487.666 0 0 0 146.825,74.189a1.9,1.9 0 0 0 2.063,-0.676a348.2,348.2 0 0 0 30.037,-48.842a1.86,1.86 0 0 0 -1.019,-2.588a321.173,321.173 0 0 1 -45.868,-21.853a1.885,1.885 0 0 1 -0.185,-3.126c3.082,-2.309 6.166,-4.711 9.109,-7.137a1.819,1.819 0 0 1 1.9,-0.256c96.229,43.917 200.41,43.917 295.5,0a1.812,1.812 0 0 1 1.924,0.233c2.944,2.426 6.027,4.851 9.132,7.16a1.884,1.884 0 0 1 -0.162,3.126a301.407,301.407 0 0 1 -45.89,21.83a1.875,1.875 0 0 0 -1,2.611a391.055,391.055 0 0 0 30.014,48.815a1.864,1.864 0 0 0 2.063,0.7a486.048,486.048 0 0 0 147.062,-74.186a1.882,1.882 0 0 0 0.765,-1.352c12.264,-126.783 -20.532,-236.912 -86.934,-334.541zm-302.04,267.744c-28.972,0 -52.844,-26.587 -52.844,-59.239s23.409,-59.241 52.844,-59.241c29.665,0 53.306,26.82 52.843,59.239c0,32.654 -23.41,59.241 -52.843,59.241zm195.38,0c-28.971,0 -52.843,-26.587 -52.843,-59.239s23.409,-59.241 52.843,-59.241c29.667,0 53.307,26.82 52.844,59.239c0,32.654 -23.177,59.241 -52.844,59.241z" fill="#cea66e"/>
 </g>
</svg>