<svg width="91" height="34" xmlns="http://www.w3.org/2000/svg" fill="none">

 <g>
  <title>Layer 1</title>
  <path id="svg_1" fill="#A435F0" d="m14.05,8.112l-7.026,-4.056l-7.024,4.056l0,-4.056l7.025,-4.056l7.026,4.056l0,4.056l-0.001,0z"/>
  <path id="svg_2" fill="#cea66e" d="m0,11.518l3.68,0l0,8.941c0,2.31 1.725,3.436 3.345,3.436c1.634,0 3.346,-1.156 3.346,-3.467l0,-8.91l3.68,0l0,9.154c0,2.128 -0.669,3.77 -2.007,4.896c-1.339,1.125 -3.011,1.673 -5.05,1.673c-2.037,0 -3.71,-0.547 -5.017,-1.673c-1.308,-1.125 -1.977,-2.706 -1.977,-4.805l0,-9.245zm45.866,11.112c-1.114,0.992 -2.383,1.478 -3.83,1.478c-2.64,0 -4.41,-1.504 -4.61,-3.833l11.89,0s0.08,-0.752 0.08,-1.458c0,-2.19 -0.7,-4.015 -2.13,-5.505c-1.398,-1.49 -3.222,-2.22 -5.443,-2.22c-2.341,0 -4.258,0.73 -5.779,2.22c-1.49,1.49 -2.25,3.436 -2.25,5.87l0,0.12c0,2.403 0.76,4.319 2.25,5.749c1.49,1.429 3.467,2.159 5.87,2.159c2.794,0 5.017,-1.102 6.685,-3.002l-2.733,-1.578zm-6.994,-7.463c0.82,-0.639 1.825,-0.973 2.95,-0.973c1.064,0 1.946,0.334 2.707,1.004c0.726,0.61 1.118,1.359 1.152,2.22l-8.161,0c0.118,-0.89 0.568,-1.64 1.353,-2.25l-0.001,-0.001zm44.038,14.109c-1.493,3.525 -3.055,4.724 -5.45,4.724l-1.66,0l0,-3.262l1.342,0c0.824,0 1.59,-0.31 2.32,-1.994l0.73,-1.686l-6.296,-15.54l3.741,0l4.471,11.192l4.593,-11.192l3.74,0l-7.53,17.758l-0.001,0zm-54.533,-23.627l0,7.257c-1.206,-1.08 -3.082,-1.723 -4.896,-1.723c-2.16,0 -3.984,0.76 -5.474,2.31c-1.46,1.521 -2.19,3.406 -2.19,5.687c0,2.282 0.73,4.167 2.19,5.718c1.49,1.521 3.315,2.282 5.474,2.282c2.49,0 4.064,-0.979 4.896,-1.746l0,1.411l3.65,0l0,-21.195l-3.65,0l0,-0.001zm-1.095,16.878c-0.882,0.882 -2.007,1.339 -3.315,1.339c-1.308,0 -2.372,-0.457 -3.254,-1.339c-0.85,-0.882 -1.277,-2.007 -1.277,-3.345c0,-1.339 0.426,-2.464 1.277,-3.346c0.882,-0.882 1.946,-1.338 3.254,-1.338s2.433,0.456 3.315,1.338c0.912,0.882 1.37,2.007 1.37,3.346c0,1.338 -0.458,2.463 -1.37,3.345zm40.94,-11.313c-2.772,0 -4.213,1.15 -5.2,2.258c-0.395,-0.753 -1.507,-2.258 -4.105,-2.258c-2.196,0 -3.49,1.11 -4.136,1.9l0,-1.594l-3.618,0l0,15.327l3.618,0l0,-8.82c0,-2.068 1.278,-3.558 2.98,-3.558c1.735,0 2.738,1.308 2.738,3.406l0,8.971l3.619,0l0,-8.82c0,-2.098 1.246,-3.558 3.04,-3.558c1.734,0 2.737,1.308 2.737,3.405l0,8.972l3.65,0l0,-9.488c0,-3.996 -2.148,-6.142 -5.323,-6.142l0,-0.001z"/>
 </g>
</svg>